<svg width="512" height="512" viewBox="0 0 120 120" fill="none" xmlns="http://www.w3.org/2000/svg"><path fill-rule="evenodd" clip-rule="evenodd" d="M7.39644 112.25L-0.176788 119.823L0.176765 120.177L7.74999 112.604V120H8.24999V112.25H37.75V120H38.25V112.25H59.75V120H60.25V112.25H81.75V120H82.25V112.25H111.75V120H112.25V112.604L119.823 120.177L120.177 119.823L112.604 112.25H120V111.75H112.25V82.25H120V81.75H112.25V60.25H120V59.75H112.25V38.25H120V37.75H112.25V8.25002H120V7.75002H112.604L120.177 0.176796L119.823 -0.176758L112.25 7.39647V1.88798e-05H111.75V7.75002H82.25V1.88798e-05H81.75V7.75002H60.25V1.88798e-05H59.75V7.75002H38.25V1.88798e-05H37.75V7.75002H8.24999V1.88798e-05H7.74999V7.39647L0.176758 -0.176758L-0.176788 0.176796L7.39644 7.75002H-1.16378e-05V8.25002H7.74999V37.75H-1.16378e-05V38.25H7.74999V59.75H-1.16378e-05V60.25H7.74999V81.75H-1.16378e-05V82.25H7.74999V111.75H-1.16378e-05V112.25H7.39644ZM111.75 89.8133V111.396L105.699 105.346C107.696 103.3 109.266 100.836 110.275 98.0884C111.094 95.4818 111.524 92.9631 111.75 89.8133ZM109.985 82.25C109.928 89.4994 109.657 93.3586 108.381 97.4433C107.473 99.8972 106.068 102.1 104.285 103.931L97.1227 96.7692C101.284 92.5676 104.738 87.6633 107.289 82.25H109.985ZM110 75.2153V76.5697C110 78.4734 109.999 80.1889 109.989 81.75H107.522C108.488 79.6434 109.317 77.4614 110 75.2153ZM110 60.25V73.3937C109.227 76.2868 108.21 79.0801 106.971 81.75H83.812C89.0008 76.0724 92.1862 68.5328 92.249 60.25H110ZM110 46.6064V59.75H92.249C92.1861 51.4672 89.0009 43.9276 83.812 38.25H106.971C108.21 40.92 109.227 43.7133 110 46.6064ZM109.989 38.25C109.999 39.8112 110 41.5267 110 43.4302V44.7847C109.317 42.5386 108.488 40.3567 107.522 38.25H109.989ZM111.75 30.1867V8.60357L105.699 14.6543C107.696 16.7002 109.266 19.1644 110.275 21.9116C111.094 24.5178 111.524 27.0367 111.75 30.1867ZM104.285 16.0686C106.068 17.9006 107.473 20.1029 108.381 22.5568C109.657 26.6407 109.928 30.5007 109.985 37.75H107.289C104.738 32.3368 101.284 27.4324 97.1227 23.2309L104.285 16.0686ZM105.346 14.3008L111.396 8.25002H89.8134C92.9631 8.47606 95.4818 8.9063 98.0883 9.72505C100.836 10.7338 103.3 12.3041 105.346 14.3008ZM82.25 10.0149C89.4993 10.0718 93.3585 10.3427 97.4431 11.6188C99.897 12.5269 102.099 13.9319 103.931 15.7151L96.7691 22.8773C92.5676 18.7156 87.6632 15.262 82.25 12.7106V10.0149ZM75.2153 10H76.5697C78.4734 10 80.1888 10.0013 81.75 10.0113V12.4782C79.6433 11.5124 77.4614 10.6826 75.2153 10ZM60.25 10H73.3936C76.2867 10.773 79.08 11.7905 81.75 13.0289V36.188C76.0724 30.9992 68.5328 27.8139 60.25 27.751V10ZM46.6064 10H59.75V27.751C51.4672 27.8139 43.9276 30.9992 38.25 36.188V13.0289C40.9199 11.7905 43.7132 10.773 46.6064 10ZM38.25 10.0113C39.8111 10.0013 41.5266 10 43.4302 10H44.7847C42.5386 10.6826 40.3567 11.5124 38.25 12.4782V10.0113ZM30.1863 8.25002H8.60353L14.6543 14.3008C16.7002 12.3041 19.1644 10.7338 21.9117 9.72503C24.5178 8.9063 27.0365 8.47606 30.1863 8.25002ZM16.0686 15.7151C17.9006 13.9319 20.103 12.5268 22.5569 11.6187C26.6408 10.3427 30.5003 10.0718 37.75 10.0149V12.7106C32.3367 15.262 27.4324 18.7156 23.2309 22.8773L16.0686 15.7151ZM14.3007 14.6543L8.24999 8.60357V30.187C8.47602 27.0369 8.90626 24.5179 9.72503 21.9117C10.7338 19.1644 12.3041 16.7002 14.3007 14.6543ZM10.0149 37.75C10.0718 30.5008 10.3428 26.6407 11.6187 22.5569C12.5268 20.103 13.9319 17.9006 15.7151 16.0687L22.8773 23.2309C18.7155 27.4324 15.262 32.3368 12.7106 37.75H10.0149ZM10 44.7846V43.4302C10 41.5267 10.0013 39.8112 10.0113 38.25H12.4781C11.5124 40.3566 10.6826 42.5386 10 44.7846ZM10 59.75V46.6063C10.773 43.7132 11.7905 40.9199 13.0289 38.25H36.1879C30.9991 43.9276 27.8138 51.4672 27.7509 59.75H10ZM10 73.3937V60.25H27.7509C27.8138 68.5328 30.9991 76.0724 36.1879 81.75H13.0289C11.7905 79.0801 10.773 76.2868 10 73.3937ZM10.0113 81.75C10.0013 80.1889 10 78.4734 10 76.5697V75.2154C10.6826 77.4614 11.5124 79.6434 12.4781 81.75H10.0113ZM10.0149 82.25H12.7106C15.262 87.6633 18.7155 92.5676 22.8773 96.7691L15.7151 103.931C13.932 102.099 12.5269 99.8971 11.6188 97.4431C10.3427 93.3585 10.0718 89.4993 10.0149 82.25ZM8.24999 89.8129C8.47602 92.9629 8.90627 95.4817 9.72505 98.0883C10.7338 100.836 12.3042 103.3 14.3008 105.346L8.24999 111.396V89.8129ZM14.6544 105.699L8.60354 111.75H30.1885C27.0376 111.524 24.5184 111.093 21.9117 110.274C19.1645 109.266 16.7002 107.696 14.6544 105.699ZM37.75 109.985V107.289C32.3367 104.738 27.4324 101.284 23.2309 97.1227L16.0687 104.285C17.9007 106.068 20.1031 107.473 22.5569 108.38C26.6407 109.657 30.5 109.928 37.75 109.985ZM44.7846 110H43.4302C41.5266 110 39.8111 109.999 38.25 109.989V107.522C40.3566 108.488 42.5386 109.317 44.7846 110ZM46.6062 110C43.7132 109.227 40.9199 108.21 38.25 106.971V83.8121C43.9276 89.0009 51.4672 92.1862 59.75 92.2491V110H46.6062ZM60.25 110V92.2491C68.5328 92.1862 76.0724 89.0009 81.75 83.8121V106.971C79.0801 108.21 76.2868 109.227 73.3937 110H60.25ZM81.75 109.989C80.1889 109.999 78.4734 110 76.5697 110H75.2154C77.4614 109.317 79.6434 108.488 81.75 107.522V109.989ZM82.25 109.985V107.289C87.6632 104.738 92.5676 101.284 96.7691 97.1227L103.931 104.285C102.099 106.068 99.8969 107.473 97.4431 108.38C93.3586 109.657 89.4996 109.928 82.25 109.985ZM89.8111 111.75H111.396L105.346 105.699C103.3 107.696 100.836 109.266 98.0883 110.274C95.4812 111.093 92.9619 111.524 89.8111 111.75ZM106.736 82.25C104.219 87.5265 100.836 92.3098 96.7691 96.4156L82.9803 82.6268C83.103 82.5022 83.2246 82.3766 83.3453 82.25H106.736ZM96.4156 96.7691L82.6267 82.9803C82.5021 83.103 82.3765 83.2247 82.25 83.3453V106.736C87.5264 104.219 92.3097 100.836 96.4156 96.7691ZM82.6495 82.25L82.6267 82.2732L82.6035 82.25H82.6495ZM82.2732 82.6267L82.25 82.6036V82.6495L82.2732 82.6267ZM81.75 64.7124V81.3965L75.9089 75.5554C78.7842 72.6151 80.8511 68.881 81.75 64.7124ZM81.3964 81.75L75.5554 75.9089C72.6151 78.7843 68.8809 80.8511 64.7124 81.75H81.3964ZM81.7486 60.25C81.6831 66.0672 79.3338 71.336 75.5553 75.2018L60.6035 60.25H81.7486ZM75.2018 75.5554L60.25 60.6036V81.7486C66.0672 81.6831 71.336 79.3339 75.2018 75.5554ZM59.75 38.2514V59.3965L44.7982 44.4447C48.664 40.6662 53.9328 38.3169 59.75 38.2514ZM59.3964 59.75L44.4446 44.7982C40.6661 48.6641 38.3169 53.9328 38.2514 59.75H59.3964ZM55.2876 38.25C51.1191 39.1489 47.3849 41.2158 44.4446 44.0911L38.6035 38.25H55.2876ZM44.0911 44.4447L38.25 38.6036V55.2876C39.1489 51.1191 41.2157 47.3849 44.0911 44.4447ZM37.75 37.3505V37.3965L37.7268 37.3733L37.75 37.3505ZM37.3964 37.75L37.3733 37.7268L37.3505 37.75H37.3964ZM37.75 36.6547C37.6234 36.7754 37.4978 36.897 37.3732 37.0197L23.5844 23.2309C27.6902 19.1643 32.4735 15.7806 37.75 13.2641V36.6547ZM37.0197 37.3733L23.2309 23.5844C19.1643 27.6903 15.7806 32.4736 13.264 37.75H36.6547C36.7753 37.6235 36.897 37.4979 37.0197 37.3733ZM23.5844 96.7691C27.6902 100.836 32.4735 104.219 37.75 106.736V83.3453C37.6234 83.2247 37.4978 83.103 37.3732 82.9803L23.5844 96.7691ZM37.0197 82.6268L23.2309 96.4156C19.1643 92.3098 15.7806 87.5265 13.264 82.25H36.6547C36.7753 82.3766 36.897 82.5022 37.0197 82.6268ZM37.7268 82.6267L37.75 82.6495V82.6036L37.7268 82.6267ZM37.3964 82.25L37.3733 82.2732L37.3505 82.25H37.3964ZM38.6035 81.75H55.2876C51.119 80.8511 47.3849 78.7843 44.4446 75.9089L38.6035 81.75ZM44.0911 75.5554L38.25 81.3965V64.7124C39.1489 68.881 41.2157 72.6151 44.0911 75.5554ZM44.7982 75.5554C48.664 79.3339 53.9328 81.6831 59.75 81.7486V60.6036L44.7982 75.5554ZM59.3964 60.25L44.4446 75.2018C40.6661 71.336 38.3169 66.0672 38.2514 60.25H59.3964ZM60.6035 59.75H81.7486C81.6831 53.9328 79.3338 48.6641 75.5553 44.7982L60.6035 59.75ZM75.2018 44.4447L60.25 59.3965V38.2514C66.0672 38.3169 71.336 40.6662 75.2018 44.4447ZM75.9089 44.4447C78.7842 47.3849 80.8511 51.1191 81.75 55.2876V38.6036L75.9089 44.4447ZM81.3964 38.25L75.5554 44.0911C72.6151 41.2158 68.8809 39.1489 64.7124 38.25H81.3964ZM82.6035 37.75H82.6495L82.6267 37.7268L82.6035 37.75ZM82.2732 37.3733L82.25 37.3965V37.3505L82.2732 37.3733ZM82.9803 37.3733C83.103 37.4979 83.2246 37.6235 83.3453 37.75H106.736C104.219 32.4736 100.836 27.6902 96.7691 23.5844L82.9803 37.3733ZM96.4156 23.2309L82.6267 37.0197C82.5021 36.897 82.3765 36.7754 82.25 36.6547V13.2641C87.5264 15.7806 92.3098 19.1643 96.4156 23.2309ZM36.8698 81.75H37.75V60.25H28.251C28.3151 68.5679 31.5778 76.1244 36.8698 81.75ZM38.25 83.1302V82.25H59.75V91.7491C51.4321 91.6849 43.8756 88.4222 38.25 83.1302ZM60.25 91.7491V82.25H81.75V83.1302C76.1243 88.4222 68.5679 91.6849 60.25 91.7491ZM82.25 81.75H83.1302C88.4222 76.1244 91.6849 68.5679 91.749 60.25H82.25V81.75ZM37.75 59.75H28.251C28.3151 51.4321 31.5778 43.8757 36.8698 38.25H37.75V59.75ZM91.749 59.75H82.25V38.25H83.1302C88.4222 43.8757 91.6849 51.4321 91.749 59.75ZM81.75 36.8698V37.75H60.25V28.251C68.5679 28.3151 76.1243 31.5778 81.75 36.8698ZM59.75 28.251V37.75H38.25V36.8698C43.8756 31.5778 51.4321 28.3151 59.75 28.251Z" fill="rgba(255, 255, 255, .4)"/></svg>